<svg xmlns="http://www.w3.org/2000/svg" viewBox="0 0 214.43 215.89"><defs><style>.cls-1{fill:#f1f2f2;}.cls-2{fill:#a7a9ac;}.cls-3{fill:#ed1c24;}</style></defs><g id="Layer_2" data-name="Layer 2"><g id="Layer_1-2" data-name="Layer 1"><path class="cls-1" d="M137.1,108.17a30,30,0,1,1-29.54-30.24A30.18,30.18,0,0,1,137.1,108.17Z"/><path class="cls-2" d="M214.43,118.13A103.62,103.62,0,0,1,189,178.2c-19.9,23-45.29,35.93-75.64,37.53C48,219.17,3,167.53,0,118.13H57.71c7.5,24.47,23.24,39.53,49.37,39.53S149,142.6,156.45,118.13Z"/><path class="cls-3" d="M214.15,97.76H156.42c-7.19-24-22.49-38.92-47.9-39.53C81.69,57.58,65.45,72.7,57.7,97.74H.31C1,59.16,36.09,3.57,101.4.16,167.05-3.27,211.32,49.26,214.15,97.76Z"/></g></g></svg>